<svg width="50" height="58" viewBox="0 0 50 58" fill="none" xmlns="http://www.w3.org/2000/svg">
<rect x="1.5" y="8" width="47" height="47" rx="6.5" stroke="#BAC7DB" stroke-width="3"/>
<path d="M12 13.5V2.5" stroke="#BAC7DB" stroke-width="3" stroke-linecap="round"/>
<path d="M37.5 13V2" stroke="#BAC7DB" stroke-width="3" stroke-linecap="round"/>
<path d="M7.091 20.09V18.296H14.371V20.09H11.745V27.5H9.717V20.09H7.091ZM15.4008 27.5V18.296H17.4288V21.728H21.3678V18.296H23.3958V27.5H21.3678V23.522H17.4288V27.5H15.4008ZM25.2651 18.296H27.2931V23.899C27.2931 24.991 28.0731 25.862 29.1521 25.862C30.1141 25.862 30.9981 25.095 30.9981 23.899V18.296H33.0261V23.99C33.0261 25.992 31.8041 27.734 29.1521 27.734C26.5001 27.734 25.2651 25.992 25.2651 23.99V18.296ZM36.9288 27.5H34.9008V18.296H38.5278C40.1918 18.296 41.9338 18.855 41.9338 21.091C41.9338 22.443 41.1928 23.379 39.9448 23.613L42.2848 27.5H39.8538L37.9298 23.821H36.9288V27.5ZM36.9288 22.105H38.1898C39.1258 22.105 39.8278 21.949 39.8278 21.078C39.8278 20.324 39.2688 20.012 38.3068 20.012H36.9288V22.105Z" fill="#8C83C9"/>
<path d="M21.64 33.34V47.5H18.76V36.7L15.92 39.2L14.22 37.24L18.84 33.34H21.64ZM30.6359 33.1C33.4359 33.1 35.4159 34.52 35.4159 37.04C35.4159 38.66 34.5159 39.82 32.9959 40.14V40.2C34.6759 40.42 35.6559 41.84 35.6559 43.5C35.6559 46.16 33.5559 47.74 30.5559 47.74C27.8159 47.74 25.9959 46.42 25.4759 44.08L28.6359 43.34C28.8359 44.36 29.4759 44.98 30.7359 44.98C31.9559 44.98 32.6559 44.3 32.6559 43.16C32.6559 41.52 31.0359 41.52 29.9359 41.52H29.1559V38.92H30.0759C31.6359 38.92 32.4159 38.46 32.4159 37.34C32.4159 36.44 31.6159 35.86 30.6559 35.86C29.8159 35.86 29.1159 36.32 28.8959 37.18L25.5959 36.5C26.1759 34.28 27.9359 33.1 30.6359 33.1Z" fill="#575293"/>
</svg>
