<svg width="299" height="85" viewBox="0 0 299 85" fill="none" xmlns="http://www.w3.org/2000/svg">
<circle cx="42.5" cy="42.5" r="42.5" fill="#575293"/>
<ellipse cx="50.5752" cy="30.1751" rx="19.125" ry="19.125" fill="#8C83C9"/>
<ellipse cx="49.2998" cy="33.15" rx="14.875" ry="14.875" fill="#89B3A9"/>
<path d="M113.968 26.152C124.768 26.152 132.304 33.208 132.304 44.008C132.304 54.808 124.624 61.864 113.968 61.864C103.264 61.864 95.632 54.856 95.632 44.008C95.632 33.16 103.264 26.152 113.968 26.152ZM103.408 44.008C103.408 50.392 107.584 54.952 113.968 54.952C120.304 54.952 124.528 50.392 124.528 44.008C124.528 37.624 120.304 33.064 113.92 33.064C107.632 33.064 103.408 37.576 103.408 44.008ZM136.482 61V37.672H143.682V41.416H143.778C145.314 38.584 147.33 37.096 150.546 37.096C151.314 37.096 152.226 37.144 152.898 37.336V43.912C151.842 43.624 150.93 43.432 149.826 43.432C144.69 43.432 143.682 46.168 143.682 50.968V61H136.482ZM172.465 24.712H179.665V61H173.041V57.928H172.945C171.361 60.184 168.481 61.576 165.745 61.576C158.737 61.576 154.321 56.488 154.321 49.528C154.321 43.288 158.161 37.096 164.977 37.096C167.761 37.096 170.641 37.816 172.369 40.168H172.465V24.712ZM161.521 49.336C161.521 52.84 163.729 55.24 167.281 55.24C170.785 55.24 173.041 52.936 173.041 49.336C173.041 45.544 170.641 43.432 167.233 43.432C163.729 43.432 161.521 45.736 161.521 49.336ZM184.699 49.336C184.699 41.944 190.363 37.096 197.851 37.096C202.363 37.096 208.603 39.88 208.603 49.576V51.592H191.899C192.475 54.232 194.395 56.104 197.323 56.104C199.771 56.104 201.259 54.856 202.459 53.272L207.499 56.968C205.243 59.896 201.307 61.576 197.659 61.576C190.699 61.576 184.699 56.968 184.699 49.336ZM191.899 46.696H201.403C201.403 44.056 199.435 42.28 196.939 42.28C194.251 42.28 192.139 44.008 191.899 46.696ZM212.982 61V37.672H220.182V41.416H220.278C221.814 38.584 223.83 37.096 227.046 37.096C227.814 37.096 228.726 37.144 229.398 37.336V43.912C228.342 43.624 227.43 43.432 226.326 43.432C221.19 43.432 220.182 46.168 220.182 50.968V61H212.982ZM248.965 24.712H256.165V61H249.541V57.928H249.445C247.861 60.184 244.981 61.576 242.245 61.576C235.237 61.576 230.821 56.488 230.821 49.528C230.821 43.288 234.661 37.096 241.477 37.096C244.261 37.096 247.141 37.816 248.869 40.168H248.965V24.712ZM238.021 49.336C238.021 52.84 240.229 55.24 243.781 55.24C247.285 55.24 249.541 52.936 249.541 49.336C249.541 45.544 247.141 43.432 243.733 43.432C240.229 43.432 238.021 45.736 238.021 49.336ZM269.215 24.712V61H262.015V24.712H269.215ZM282.212 61.192L271.988 37.672H279.764L285.764 53.08H285.86L290.996 37.672H298.388L287.924 64.552C285.908 69.736 284.9 72.52 277.94 72.52C276.116 72.52 274.292 72.232 272.564 71.656L273.524 65.752C274.628 66.232 275.684 66.472 276.884 66.472C280.724 66.472 281.012 64.264 282.212 61.192Z" fill="#575293"/>
</svg>
