<svg width="1725" height="111" viewBox="0 0 1725 111" fill="none" xmlns="http://www.w3.org/2000/svg">
<ellipse cx="44.6115" cy="1.7187" rx="0.991379" ry="0.859323" fill="black" fill-opacity="0.5"/>
<ellipse cx="175.474" cy="1.7187" rx="0.991379" ry="0.859323" fill="black" fill-opacity="0.5"/>
<ellipse cx="306.334" cy="1.7187" rx="0.991379" ry="0.859323" fill="black" fill-opacity="0.5"/>
<ellipse cx="437.195" cy="1.7187" rx="0.991379" ry="0.859323" fill="black" fill-opacity="0.5"/>
<ellipse cx="568.058" cy="2.57795" rx="0.991379" ry="0.859323" fill="black" fill-opacity="0.5"/>
<ellipse cx="698.919" cy="2.57795" rx="0.991379" ry="0.859323" fill="black" fill-opacity="0.5"/>
<ellipse cx="829.779" cy="2.57795" rx="0.991379" ry="0.859323" fill="black" fill-opacity="0.5"/>
<ellipse cx="960.642" cy="2.57795" rx="0.991379" ry="0.859323" fill="black" fill-opacity="0.5"/>
<ellipse cx="1091.5" cy="2.57795" rx="0.991379" ry="0.859323" fill="black" fill-opacity="0.5"/>
<ellipse cx="1222.36" cy="2.57795" rx="0.991379" ry="0.859323" fill="black" fill-opacity="0.5"/>
<ellipse cx="1353.23" cy="1.7187" rx="0.991379" ry="0.859323" fill="black" fill-opacity="0.5"/>
<ellipse cx="1484.09" cy="1.7187" rx="0.991379" ry="0.859323" fill="black" fill-opacity="0.5"/>
<ellipse cx="1614.95" cy="1.7187" rx="0.991379" ry="0.859323" fill="black" fill-opacity="0.5"/>
<ellipse cx="88.2326" cy="1.7187" rx="0.991379" ry="0.859323" fill="black" fill-opacity="0.5"/>
<ellipse cx="219.094" cy="1.7187" rx="0.991379" ry="0.859323" fill="black" fill-opacity="0.5"/>
<ellipse cx="349.954" cy="1.7187" rx="0.991379" ry="0.859323" fill="black" fill-opacity="0.5"/>
<ellipse cx="480.817" cy="1.7187" rx="0.991379" ry="0.859323" fill="black" fill-opacity="0.5"/>
<ellipse cx="611.677" cy="2.57795" rx="0.991379" ry="0.859323" fill="black" fill-opacity="0.5"/>
<ellipse cx="742.539" cy="2.57795" rx="0.991379" ry="0.859323" fill="black" fill-opacity="0.5"/>
<ellipse cx="873.4" cy="2.57795" rx="0.991379" ry="0.859323" fill="black" fill-opacity="0.5"/>
<ellipse cx="1004.26" cy="2.57795" rx="0.991379" ry="0.859323" fill="black" fill-opacity="0.5"/>
<ellipse cx="1135.12" cy="2.57795" rx="0.991379" ry="0.859323" fill="black" fill-opacity="0.5"/>
<ellipse cx="1265.98" cy="2.57795" rx="0.991379" ry="0.859323" fill="black" fill-opacity="0.5"/>
<ellipse cx="1396.85" cy="1.7187" rx="0.991379" ry="0.859323" fill="black" fill-opacity="0.5"/>
<ellipse cx="1527.71" cy="1.7187" rx="0.991379" ry="0.859323" fill="black" fill-opacity="0.5"/>
<ellipse cx="1658.57" cy="1.7187" rx="0.991379" ry="0.859323" fill="black" fill-opacity="0.5"/>
<ellipse cx="131.853" cy="1.7187" rx="0.991379" ry="0.859323" fill="black" fill-opacity="0.5"/>
<ellipse cx="262.714" cy="1.7187" rx="0.991379" ry="0.859323" fill="black" fill-opacity="0.5"/>
<ellipse cx="393.576" cy="1.7187" rx="0.991379" ry="0.859323" fill="black" fill-opacity="0.5"/>
<ellipse cx="524.437" cy="1.7187" rx="0.991379" ry="0.859323" fill="black" fill-opacity="0.5"/>
<ellipse cx="655.298" cy="2.57795" rx="0.991379" ry="0.859323" fill="black" fill-opacity="0.5"/>
<ellipse cx="786.159" cy="2.57795" rx="0.991379" ry="0.859323" fill="black" fill-opacity="0.5"/>
<ellipse cx="917.022" cy="2.57795" rx="0.991379" ry="0.859323" fill="black" fill-opacity="0.5"/>
<ellipse cx="1047.88" cy="2.57795" rx="0.991379" ry="0.859323" fill="black" fill-opacity="0.5"/>
<ellipse cx="1178.74" cy="2.57795" rx="0.991379" ry="0.859323" fill="black" fill-opacity="0.5"/>
<ellipse cx="1309.6" cy="2.57795" rx="0.991379" ry="0.859323" fill="black" fill-opacity="0.5"/>
<ellipse cx="1440.47" cy="1.7187" rx="0.991379" ry="0.859323" fill="black" fill-opacity="0.5"/>
<ellipse cx="1571.33" cy="1.7187" rx="0.991379" ry="0.859323" fill="black" fill-opacity="0.5"/>
<ellipse cx="1702.19" cy="1.7187" rx="0.991379" ry="0.859323" fill="black" fill-opacity="0.5"/>
<ellipse cx="22.8009" cy="10.3118" rx="0.991379" ry="0.859323" fill="black" fill-opacity="0.5"/>
<ellipse cx="66.422" cy="11.1712" rx="0.991379" ry="0.859323" fill="black" fill-opacity="0.5"/>
<ellipse cx="197.283" cy="11.1712" rx="0.991379" ry="0.859323" fill="black" fill-opacity="0.5"/>
<ellipse cx="328.145" cy="11.1712" rx="0.991379" ry="0.859323" fill="black" fill-opacity="0.5"/>
<ellipse cx="459.006" cy="11.1712" rx="0.991379" ry="0.859323" fill="black" fill-opacity="0.5"/>
<ellipse cx="589.867" cy="12.0305" rx="0.991379" ry="0.859323" fill="black" fill-opacity="0.5"/>
<ellipse cx="720.729" cy="12.0305" rx="0.991379" ry="0.859323" fill="black" fill-opacity="0.5"/>
<ellipse cx="851.589" cy="12.0305" rx="0.991379" ry="0.859323" fill="black" fill-opacity="0.5"/>
<ellipse cx="982.452" cy="12.0305" rx="0.991379" ry="0.859323" fill="black" fill-opacity="0.5"/>
<ellipse cx="1113.31" cy="12.0305" rx="0.991379" ry="0.859323" fill="black" fill-opacity="0.5"/>
<ellipse cx="1244.17" cy="12.0305" rx="0.991379" ry="0.859323" fill="black" fill-opacity="0.5"/>
<ellipse cx="1375.04" cy="11.1712" rx="0.991379" ry="0.859323" fill="black" fill-opacity="0.5"/>
<ellipse cx="1505.9" cy="11.1712" rx="0.991379" ry="0.859323" fill="black" fill-opacity="0.5"/>
<ellipse cx="1636.76" cy="11.1712" rx="0.991379" ry="0.859323" fill="black" fill-opacity="0.5"/>
<ellipse cx="110.043" cy="11.1712" rx="0.991379" ry="0.859323" fill="black" fill-opacity="0.5"/>
<ellipse cx="240.903" cy="11.1712" rx="0.991379" ry="0.859323" fill="black" fill-opacity="0.5"/>
<ellipse cx="371.765" cy="11.1712" rx="0.991379" ry="0.859323" fill="black" fill-opacity="0.5"/>
<ellipse cx="502.627" cy="11.1712" rx="0.991379" ry="0.859323" fill="black" fill-opacity="0.5"/>
<ellipse cx="633.487" cy="12.0305" rx="0.991379" ry="0.859323" fill="black" fill-opacity="0.5"/>
<ellipse cx="764.349" cy="12.0305" rx="0.991379" ry="0.859323" fill="black" fill-opacity="0.5"/>
<ellipse cx="895.211" cy="12.0305" rx="0.991379" ry="0.859323" fill="black" fill-opacity="0.5"/>
<ellipse cx="1026.07" cy="12.0305" rx="0.991379" ry="0.859323" fill="black" fill-opacity="0.5"/>
<ellipse cx="1156.93" cy="12.0305" rx="0.991379" ry="0.859323" fill="black" fill-opacity="0.5"/>
<ellipse cx="1287.79" cy="12.0305" rx="0.991379" ry="0.859323" fill="black" fill-opacity="0.5"/>
<ellipse cx="1418.66" cy="11.1712" rx="0.991379" ry="0.859323" fill="black" fill-opacity="0.5"/>
<ellipse cx="1549.52" cy="11.1712" rx="0.991379" ry="0.859323" fill="black" fill-opacity="0.5"/>
<ellipse cx="1680.38" cy="11.1712" rx="0.991379" ry="0.859323" fill="black" fill-opacity="0.5"/>
<ellipse cx="153.663" cy="11.1712" rx="0.991379" ry="0.859323" fill="black" fill-opacity="0.5"/>
<ellipse cx="284.525" cy="11.1712" rx="0.991379" ry="0.859323" fill="black" fill-opacity="0.5"/>
<ellipse cx="415.386" cy="11.1712" rx="0.991379" ry="0.859323" fill="black" fill-opacity="0.5"/>
<ellipse cx="546.246" cy="11.1712" rx="0.991379" ry="0.859323" fill="black" fill-opacity="0.5"/>
<ellipse cx="677.109" cy="12.0305" rx="0.991379" ry="0.859323" fill="black" fill-opacity="0.5"/>
<ellipse cx="807.97" cy="12.0305" rx="0.991379" ry="0.859323" fill="black" fill-opacity="0.5"/>
<ellipse cx="938.831" cy="12.0305" rx="0.991379" ry="0.859323" fill="black" fill-opacity="0.5"/>
<ellipse cx="1069.69" cy="12.0305" rx="0.991379" ry="0.859323" fill="black" fill-opacity="0.5"/>
<ellipse cx="1200.55" cy="12.0305" rx="0.991379" ry="0.859323" fill="black" fill-opacity="0.5"/>
<ellipse cx="1331.42" cy="12.0305" rx="0.991379" ry="0.859323" fill="black" fill-opacity="0.5"/>
<ellipse cx="1462.28" cy="11.1712" rx="0.991379" ry="0.859323" fill="black" fill-opacity="0.5"/>
<ellipse cx="1593.14" cy="11.1712" rx="0.991379" ry="0.859323" fill="black" fill-opacity="0.5"/>
<ellipse cx="1724" cy="11.1712" rx="0.991379" ry="0.859323" fill="black" fill-opacity="0.5"/>
<ellipse cx="0.991379" cy="22.3424" rx="0.991379" ry="0.859323" fill="black" fill-opacity="0.5"/>
<ellipse cx="44.6115" cy="23.2017" rx="0.991379" ry="0.859323" fill="black" fill-opacity="0.5"/>
<ellipse cx="175.474" cy="23.2017" rx="0.991379" ry="0.859323" fill="black" fill-opacity="0.5"/>
<ellipse cx="306.334" cy="23.2017" rx="0.991379" ry="0.859323" fill="black" fill-opacity="0.5"/>
<ellipse cx="437.195" cy="23.2017" rx="0.991379" ry="0.859323" fill="black" fill-opacity="0.5"/>
<ellipse cx="568.058" cy="24.061" rx="0.991379" ry="0.859323" fill="black" fill-opacity="0.5"/>
<ellipse cx="698.919" cy="24.061" rx="0.991379" ry="0.859323" fill="black" fill-opacity="0.5"/>
<ellipse cx="829.779" cy="24.061" rx="0.991379" ry="0.859323" fill="black" fill-opacity="0.5"/>
<ellipse cx="960.642" cy="24.061" rx="0.991379" ry="0.859323" fill="black" fill-opacity="0.5"/>
<ellipse cx="1091.5" cy="24.061" rx="0.991379" ry="0.859323" fill="black" fill-opacity="0.5"/>
<ellipse cx="1222.36" cy="24.061" rx="0.991379" ry="0.859323" fill="black" fill-opacity="0.5"/>
<ellipse cx="1353.23" cy="23.2017" rx="0.991379" ry="0.859323" fill="black" fill-opacity="0.5"/>
<ellipse cx="1484.09" cy="23.2017" rx="0.991379" ry="0.859323" fill="black" fill-opacity="0.5"/>
<ellipse cx="1614.95" cy="23.2017" rx="0.991379" ry="0.859323" fill="black" fill-opacity="0.5"/>
<ellipse cx="88.2326" cy="23.2017" rx="0.991379" ry="0.859323" fill="black" fill-opacity="0.5"/>
<ellipse cx="219.094" cy="23.2017" rx="0.991379" ry="0.859323" fill="black" fill-opacity="0.5"/>
<ellipse cx="349.954" cy="23.2017" rx="0.991379" ry="0.859323" fill="black" fill-opacity="0.5"/>
<ellipse cx="480.817" cy="23.2017" rx="0.991379" ry="0.859323" fill="black" fill-opacity="0.5"/>
<ellipse cx="611.677" cy="24.061" rx="0.991379" ry="0.859323" fill="black" fill-opacity="0.5"/>
<ellipse cx="742.539" cy="24.061" rx="0.991379" ry="0.859323" fill="black" fill-opacity="0.5"/>
<ellipse cx="873.4" cy="24.061" rx="0.991379" ry="0.859323" fill="black" fill-opacity="0.5"/>
<ellipse cx="1004.26" cy="24.061" rx="0.991379" ry="0.859323" fill="black" fill-opacity="0.5"/>
<ellipse cx="1135.12" cy="24.061" rx="0.991379" ry="0.859323" fill="black" fill-opacity="0.5"/>
<ellipse cx="1265.98" cy="24.061" rx="0.991379" ry="0.859323" fill="black" fill-opacity="0.5"/>
<ellipse cx="1396.85" cy="23.2017" rx="0.991379" ry="0.859323" fill="black" fill-opacity="0.5"/>
<ellipse cx="1527.71" cy="23.2017" rx="0.991379" ry="0.859323" fill="black" fill-opacity="0.5"/>
<ellipse cx="1658.57" cy="23.2017" rx="0.991379" ry="0.859323" fill="black" fill-opacity="0.5"/>
<ellipse cx="131.853" cy="23.2017" rx="0.991379" ry="0.859323" fill="black" fill-opacity="0.5"/>
<ellipse cx="262.714" cy="23.2017" rx="0.991379" ry="0.859323" fill="black" fill-opacity="0.5"/>
<ellipse cx="393.576" cy="23.2017" rx="0.991379" ry="0.859323" fill="black" fill-opacity="0.5"/>
<ellipse cx="524.437" cy="23.2017" rx="0.991379" ry="0.859323" fill="black" fill-opacity="0.5"/>
<ellipse cx="655.298" cy="24.061" rx="0.991379" ry="0.859323" fill="black" fill-opacity="0.5"/>
<ellipse cx="786.159" cy="24.061" rx="0.991379" ry="0.859323" fill="black" fill-opacity="0.5"/>
<ellipse cx="917.022" cy="24.061" rx="0.991379" ry="0.859323" fill="black" fill-opacity="0.5"/>
<ellipse cx="1047.88" cy="24.061" rx="0.991379" ry="0.859323" fill="black" fill-opacity="0.5"/>
<ellipse cx="1178.74" cy="24.061" rx="0.991379" ry="0.859323" fill="black" fill-opacity="0.5"/>
<ellipse cx="1309.6" cy="24.061" rx="0.991379" ry="0.859323" fill="black" fill-opacity="0.5"/>
<ellipse cx="1440.47" cy="23.2017" rx="0.991379" ry="0.859323" fill="black" fill-opacity="0.5"/>
<ellipse cx="1571.33" cy="23.2017" rx="0.991379" ry="0.859323" fill="black" fill-opacity="0.5"/>
<ellipse cx="1702.19" cy="23.2017" rx="0.991379" ry="0.859323" fill="black" fill-opacity="0.5"/>
<ellipse cx="22.8009" cy="31.795" rx="0.991379" ry="0.859323" fill="black" fill-opacity="0.5"/>
<ellipse cx="66.422" cy="32.6542" rx="0.991379" ry="0.859323" fill="black" fill-opacity="0.5"/>
<ellipse cx="197.283" cy="32.6542" rx="0.991379" ry="0.859323" fill="black" fill-opacity="0.5"/>
<ellipse cx="328.145" cy="32.6542" rx="0.991379" ry="0.859323" fill="black" fill-opacity="0.5"/>
<ellipse cx="459.006" cy="32.6542" rx="0.991379" ry="0.859323" fill="black" fill-opacity="0.5"/>
<ellipse cx="589.867" cy="33.5136" rx="0.991379" ry="0.859323" fill="black" fill-opacity="0.5"/>
<ellipse cx="720.729" cy="33.5136" rx="0.991379" ry="0.859323" fill="black" fill-opacity="0.5"/>
<ellipse cx="851.589" cy="33.5136" rx="0.991379" ry="0.859323" fill="black" fill-opacity="0.5"/>
<ellipse cx="982.452" cy="33.5136" rx="0.991379" ry="0.859323" fill="black" fill-opacity="0.5"/>
<ellipse cx="1113.31" cy="33.5136" rx="0.991379" ry="0.859323" fill="black" fill-opacity="0.5"/>
<ellipse cx="1244.17" cy="33.5136" rx="0.991379" ry="0.859323" fill="black" fill-opacity="0.5"/>
<ellipse cx="1375.04" cy="32.6542" rx="0.991379" ry="0.859323" fill="black" fill-opacity="0.5"/>
<ellipse cx="1505.9" cy="32.6542" rx="0.991379" ry="0.859323" fill="black" fill-opacity="0.5"/>
<ellipse cx="1636.76" cy="32.6542" rx="0.991379" ry="0.859323" fill="black" fill-opacity="0.5"/>
<ellipse cx="110.043" cy="32.6542" rx="0.991379" ry="0.859323" fill="black" fill-opacity="0.5"/>
<ellipse cx="240.903" cy="32.6542" rx="0.991379" ry="0.859323" fill="black" fill-opacity="0.5"/>
<ellipse cx="371.765" cy="32.6542" rx="0.991379" ry="0.859323" fill="black" fill-opacity="0.5"/>
<ellipse cx="502.627" cy="32.6542" rx="0.991379" ry="0.859323" fill="black" fill-opacity="0.5"/>
<ellipse cx="633.487" cy="33.5136" rx="0.991379" ry="0.859323" fill="black" fill-opacity="0.5"/>
<ellipse cx="764.349" cy="33.5136" rx="0.991379" ry="0.859323" fill="black" fill-opacity="0.5"/>
<ellipse cx="895.211" cy="33.5136" rx="0.991379" ry="0.859323" fill="black" fill-opacity="0.5"/>
<ellipse cx="1026.07" cy="33.5136" rx="0.991379" ry="0.859323" fill="black" fill-opacity="0.5"/>
<ellipse cx="1156.93" cy="33.5136" rx="0.991379" ry="0.859323" fill="black" fill-opacity="0.5"/>
<ellipse cx="1287.79" cy="33.5136" rx="0.991379" ry="0.859323" fill="black" fill-opacity="0.5"/>
<ellipse cx="1418.66" cy="32.6542" rx="0.991379" ry="0.859323" fill="black" fill-opacity="0.5"/>
<ellipse cx="1549.52" cy="32.6542" rx="0.991379" ry="0.859323" fill="black" fill-opacity="0.5"/>
<ellipse cx="1680.38" cy="32.6542" rx="0.991379" ry="0.859323" fill="black" fill-opacity="0.5"/>
<ellipse cx="153.663" cy="32.6542" rx="0.991379" ry="0.859323" fill="black" fill-opacity="0.5"/>
<ellipse cx="284.525" cy="32.6542" rx="0.991379" ry="0.859323" fill="black" fill-opacity="0.5"/>
<ellipse cx="415.386" cy="32.6542" rx="0.991379" ry="0.859323" fill="black" fill-opacity="0.5"/>
<ellipse cx="546.246" cy="32.6542" rx="0.991379" ry="0.859323" fill="black" fill-opacity="0.5"/>
<ellipse cx="677.109" cy="33.5136" rx="0.991379" ry="0.859323" fill="black" fill-opacity="0.5"/>
<ellipse cx="807.97" cy="33.5136" rx="0.991379" ry="0.859323" fill="black" fill-opacity="0.5"/>
<ellipse cx="938.831" cy="33.5136" rx="0.991379" ry="0.859323" fill="black" fill-opacity="0.5"/>
<ellipse cx="1069.69" cy="33.5136" rx="0.991379" ry="0.859323" fill="black" fill-opacity="0.5"/>
<ellipse cx="1200.55" cy="33.5136" rx="0.991379" ry="0.859323" fill="black" fill-opacity="0.5"/>
<ellipse cx="1331.42" cy="33.5136" rx="0.991379" ry="0.859323" fill="black" fill-opacity="0.5"/>
<ellipse cx="1462.28" cy="32.6542" rx="0.991379" ry="0.859323" fill="black" fill-opacity="0.5"/>
<ellipse cx="1593.14" cy="32.6542" rx="0.991379" ry="0.859323" fill="black" fill-opacity="0.5"/>
<ellipse cx="1724" cy="32.6542" rx="0.991379" ry="0.859323" fill="black" fill-opacity="0.5"/>
<ellipse cx="0.991379" cy="43.8255" rx="0.991379" ry="0.859323" fill="black" fill-opacity="0.5"/>
<ellipse cx="44.6115" cy="44.6848" rx="0.991379" ry="0.859323" fill="black" fill-opacity="0.5"/>
<ellipse cx="175.474" cy="44.6848" rx="0.991379" ry="0.859323" fill="black" fill-opacity="0.5"/>
<ellipse cx="306.334" cy="44.6848" rx="0.991379" ry="0.859323" fill="black" fill-opacity="0.5"/>
<ellipse cx="437.195" cy="44.6848" rx="0.991379" ry="0.859323" fill="black" fill-opacity="0.5"/>
<ellipse cx="568.058" cy="45.5441" rx="0.991379" ry="0.859323" fill="black" fill-opacity="0.5"/>
<ellipse cx="698.919" cy="45.5441" rx="0.991379" ry="0.859323" fill="black" fill-opacity="0.5"/>
<ellipse cx="829.779" cy="45.5441" rx="0.991379" ry="0.859323" fill="black" fill-opacity="0.5"/>
<ellipse cx="960.642" cy="45.5441" rx="0.991379" ry="0.859323" fill="black" fill-opacity="0.5"/>
<ellipse cx="1091.5" cy="45.5441" rx="0.991379" ry="0.859323" fill="black" fill-opacity="0.5"/>
<ellipse cx="1222.36" cy="45.5441" rx="0.991379" ry="0.859323" fill="black" fill-opacity="0.5"/>
<ellipse cx="1353.23" cy="44.6848" rx="0.991379" ry="0.859323" fill="black" fill-opacity="0.5"/>
<ellipse cx="1484.09" cy="44.6848" rx="0.991379" ry="0.859323" fill="black" fill-opacity="0.5"/>
<ellipse cx="1614.95" cy="44.6848" rx="0.991379" ry="0.859323" fill="black" fill-opacity="0.5"/>
<ellipse cx="88.2326" cy="44.6848" rx="0.991379" ry="0.859323" fill="black" fill-opacity="0.5"/>
<ellipse cx="219.094" cy="44.6848" rx="0.991379" ry="0.859323" fill="black" fill-opacity="0.5"/>
<ellipse cx="349.954" cy="44.6848" rx="0.991379" ry="0.859323" fill="black" fill-opacity="0.5"/>
<ellipse cx="480.817" cy="44.6848" rx="0.991379" ry="0.859323" fill="black" fill-opacity="0.5"/>
<ellipse cx="611.677" cy="45.5441" rx="0.991379" ry="0.859323" fill="black" fill-opacity="0.5"/>
<ellipse cx="742.539" cy="45.5441" rx="0.991379" ry="0.859323" fill="black" fill-opacity="0.5"/>
<ellipse cx="873.4" cy="45.5441" rx="0.991379" ry="0.859323" fill="black" fill-opacity="0.5"/>
<ellipse cx="1004.26" cy="45.5441" rx="0.991379" ry="0.859323" fill="black" fill-opacity="0.5"/>
<ellipse cx="1135.12" cy="45.5441" rx="0.991379" ry="0.859323" fill="black" fill-opacity="0.5"/>
<ellipse cx="1265.98" cy="45.5441" rx="0.991379" ry="0.859323" fill="black" fill-opacity="0.5"/>
<ellipse cx="1396.85" cy="44.6848" rx="0.991379" ry="0.859323" fill="black" fill-opacity="0.5"/>
<ellipse cx="1527.71" cy="44.6848" rx="0.991379" ry="0.859323" fill="black" fill-opacity="0.5"/>
<ellipse cx="1658.57" cy="44.6848" rx="0.991379" ry="0.859323" fill="black" fill-opacity="0.5"/>
<ellipse cx="131.853" cy="44.6848" rx="0.991379" ry="0.859323" fill="black" fill-opacity="0.5"/>
<ellipse cx="262.714" cy="44.6848" rx="0.991379" ry="0.859323" fill="black" fill-opacity="0.5"/>
<ellipse cx="393.576" cy="44.6848" rx="0.991379" ry="0.859323" fill="black" fill-opacity="0.5"/>
<ellipse cx="524.437" cy="44.6848" rx="0.991379" ry="0.859323" fill="black" fill-opacity="0.5"/>
<ellipse cx="655.298" cy="45.5441" rx="0.991379" ry="0.859323" fill="black" fill-opacity="0.5"/>
<ellipse cx="786.159" cy="45.5441" rx="0.991379" ry="0.859323" fill="black" fill-opacity="0.5"/>
<ellipse cx="917.022" cy="45.5441" rx="0.991379" ry="0.859323" fill="black" fill-opacity="0.5"/>
<ellipse cx="1047.88" cy="45.5441" rx="0.991379" ry="0.859323" fill="black" fill-opacity="0.5"/>
<ellipse cx="1178.74" cy="45.5441" rx="0.991379" ry="0.859323" fill="black" fill-opacity="0.5"/>
<ellipse cx="1309.6" cy="45.5441" rx="0.991379" ry="0.859323" fill="black" fill-opacity="0.5"/>
<ellipse cx="1440.47" cy="44.6848" rx="0.991379" ry="0.859323" fill="black" fill-opacity="0.5"/>
<ellipse cx="1571.33" cy="44.6848" rx="0.991379" ry="0.859323" fill="black" fill-opacity="0.5"/>
<ellipse cx="1702.19" cy="44.6848" rx="0.991379" ry="0.859323" fill="black" fill-opacity="0.5"/>
<ellipse cx="22.8009" cy="53.278" rx="0.991379" ry="0.859323" fill="black" fill-opacity="0.5"/>
<ellipse cx="66.422" cy="54.1374" rx="0.991379" ry="0.859323" fill="black" fill-opacity="0.5"/>
<ellipse cx="197.283" cy="54.1374" rx="0.991379" ry="0.859323" fill="black" fill-opacity="0.5"/>
<ellipse cx="328.145" cy="54.1374" rx="0.991379" ry="0.859323" fill="black" fill-opacity="0.5"/>
<ellipse cx="459.006" cy="54.1374" rx="0.991379" ry="0.859323" fill="black" fill-opacity="0.5"/>
<ellipse cx="589.867" cy="54.9967" rx="0.991379" ry="0.859323" fill="black" fill-opacity="0.5"/>
<ellipse cx="720.729" cy="54.9967" rx="0.991379" ry="0.859323" fill="black" fill-opacity="0.5"/>
<ellipse cx="851.589" cy="54.9967" rx="0.991379" ry="0.859323" fill="black" fill-opacity="0.5"/>
<ellipse cx="982.452" cy="54.9967" rx="0.991379" ry="0.859323" fill="black" fill-opacity="0.5"/>
<ellipse cx="1113.31" cy="54.9967" rx="0.991379" ry="0.859323" fill="black" fill-opacity="0.5"/>
<ellipse cx="1244.17" cy="54.9967" rx="0.991379" ry="0.859323" fill="black" fill-opacity="0.5"/>
<ellipse cx="1375.04" cy="54.1374" rx="0.991379" ry="0.859323" fill="black" fill-opacity="0.5"/>
<ellipse cx="1505.9" cy="54.1374" rx="0.991379" ry="0.859323" fill="black" fill-opacity="0.5"/>
<ellipse cx="1636.76" cy="54.1374" rx="0.991379" ry="0.859323" fill="black" fill-opacity="0.5"/>
<ellipse cx="110.043" cy="54.1374" rx="0.991379" ry="0.859323" fill="black" fill-opacity="0.5"/>
<ellipse cx="240.903" cy="54.1374" rx="0.991379" ry="0.859323" fill="black" fill-opacity="0.5"/>
<ellipse cx="371.765" cy="54.1374" rx="0.991379" ry="0.859323" fill="black" fill-opacity="0.5"/>
<ellipse cx="502.627" cy="54.1374" rx="0.991379" ry="0.859323" fill="black" fill-opacity="0.5"/>
<ellipse cx="633.487" cy="54.9967" rx="0.991379" ry="0.859323" fill="black" fill-opacity="0.5"/>
<ellipse cx="764.349" cy="54.9967" rx="0.991379" ry="0.859323" fill="black" fill-opacity="0.5"/>
<ellipse cx="895.211" cy="54.9967" rx="0.991379" ry="0.859323" fill="black" fill-opacity="0.5"/>
<ellipse cx="1026.07" cy="54.9967" rx="0.991379" ry="0.859323" fill="black" fill-opacity="0.5"/>
<ellipse cx="1156.93" cy="54.9967" rx="0.991379" ry="0.859323" fill="black" fill-opacity="0.5"/>
<ellipse cx="1287.79" cy="54.9967" rx="0.991379" ry="0.859323" fill="black" fill-opacity="0.5"/>
<ellipse cx="1418.66" cy="54.1374" rx="0.991379" ry="0.859323" fill="black" fill-opacity="0.5"/>
<ellipse cx="1549.52" cy="54.1374" rx="0.991379" ry="0.859323" fill="black" fill-opacity="0.5"/>
<ellipse cx="1680.38" cy="54.1374" rx="0.991379" ry="0.859323" fill="black" fill-opacity="0.5"/>
<ellipse cx="153.663" cy="54.1374" rx="0.991379" ry="0.859323" fill="black" fill-opacity="0.5"/>
<ellipse cx="284.525" cy="54.1374" rx="0.991379" ry="0.859323" fill="black" fill-opacity="0.5"/>
<ellipse cx="415.386" cy="54.1374" rx="0.991379" ry="0.859323" fill="black" fill-opacity="0.5"/>
<ellipse cx="546.246" cy="54.1374" rx="0.991379" ry="0.859323" fill="black" fill-opacity="0.5"/>
<ellipse cx="677.109" cy="54.9967" rx="0.991379" ry="0.859323" fill="black" fill-opacity="0.5"/>
<ellipse cx="807.97" cy="54.9967" rx="0.991379" ry="0.859323" fill="black" fill-opacity="0.5"/>
<ellipse cx="938.831" cy="54.9967" rx="0.991379" ry="0.859323" fill="black" fill-opacity="0.5"/>
<ellipse cx="1069.69" cy="54.9967" rx="0.991379" ry="0.859323" fill="black" fill-opacity="0.5"/>
<ellipse cx="1200.55" cy="54.9967" rx="0.991379" ry="0.859323" fill="black" fill-opacity="0.5"/>
<ellipse cx="1331.42" cy="54.9967" rx="0.991379" ry="0.859323" fill="black" fill-opacity="0.5"/>
<ellipse cx="1462.28" cy="54.1374" rx="0.991379" ry="0.859323" fill="black" fill-opacity="0.5"/>
<ellipse cx="1593.14" cy="54.1374" rx="0.991379" ry="0.859323" fill="black" fill-opacity="0.5"/>
<ellipse cx="1724" cy="54.1374" rx="0.991379" ry="0.859323" fill="black" fill-opacity="0.5"/>
<ellipse cx="0.991379" cy="65.3085" rx="0.991379" ry="0.859323" fill="black" fill-opacity="0.5"/>
<ellipse cx="44.6115" cy="66.1679" rx="0.991379" ry="0.859323" fill="black" fill-opacity="0.5"/>
<ellipse cx="175.474" cy="66.1679" rx="0.991379" ry="0.859323" fill="black" fill-opacity="0.5"/>
<ellipse cx="306.334" cy="66.1679" rx="0.991379" ry="0.859323" fill="black" fill-opacity="0.5"/>
<ellipse cx="437.195" cy="66.1679" rx="0.991379" ry="0.859323" fill="black" fill-opacity="0.5"/>
<ellipse cx="568.058" cy="67.0272" rx="0.991379" ry="0.859323" fill="black" fill-opacity="0.5"/>
<ellipse cx="698.919" cy="67.0272" rx="0.991379" ry="0.859323" fill="black" fill-opacity="0.5"/>
<ellipse cx="829.779" cy="67.0272" rx="0.991379" ry="0.859323" fill="black" fill-opacity="0.5"/>
<ellipse cx="960.642" cy="67.0272" rx="0.991379" ry="0.859323" fill="black" fill-opacity="0.5"/>
<ellipse cx="1091.5" cy="67.0272" rx="0.991379" ry="0.859323" fill="black" fill-opacity="0.5"/>
<ellipse cx="1222.36" cy="67.0272" rx="0.991379" ry="0.859323" fill="black" fill-opacity="0.5"/>
<ellipse cx="1353.23" cy="66.1679" rx="0.991379" ry="0.859323" fill="black" fill-opacity="0.5"/>
<ellipse cx="1484.09" cy="66.1679" rx="0.991379" ry="0.859323" fill="black" fill-opacity="0.5"/>
<ellipse cx="1614.95" cy="66.1679" rx="0.991379" ry="0.859323" fill="black" fill-opacity="0.5"/>
<ellipse cx="88.2326" cy="66.1679" rx="0.991379" ry="0.859323" fill="black" fill-opacity="0.5"/>
<ellipse cx="219.094" cy="66.1679" rx="0.991379" ry="0.859323" fill="black" fill-opacity="0.5"/>
<ellipse cx="349.954" cy="66.1679" rx="0.991379" ry="0.859323" fill="black" fill-opacity="0.5"/>
<ellipse cx="480.817" cy="66.1679" rx="0.991379" ry="0.859323" fill="black" fill-opacity="0.5"/>
<ellipse cx="611.677" cy="67.0272" rx="0.991379" ry="0.859323" fill="black" fill-opacity="0.5"/>
<ellipse cx="742.539" cy="67.0272" rx="0.991379" ry="0.859323" fill="black" fill-opacity="0.5"/>
<ellipse cx="873.4" cy="67.0272" rx="0.991379" ry="0.859323" fill="black" fill-opacity="0.5"/>
<ellipse cx="1004.26" cy="67.0272" rx="0.991379" ry="0.859323" fill="black" fill-opacity="0.5"/>
<ellipse cx="1135.12" cy="67.0272" rx="0.991379" ry="0.859323" fill="black" fill-opacity="0.5"/>
<ellipse cx="1265.98" cy="67.0272" rx="0.991379" ry="0.859323" fill="black" fill-opacity="0.5"/>
<ellipse cx="1396.85" cy="66.1679" rx="0.991379" ry="0.859323" fill="black" fill-opacity="0.5"/>
<ellipse cx="1527.71" cy="66.1679" rx="0.991379" ry="0.859323" fill="black" fill-opacity="0.5"/>
<ellipse cx="1658.57" cy="66.1679" rx="0.991379" ry="0.859323" fill="black" fill-opacity="0.5"/>
<ellipse cx="131.853" cy="66.1679" rx="0.991379" ry="0.859323" fill="black" fill-opacity="0.5"/>
<ellipse cx="262.714" cy="66.1679" rx="0.991379" ry="0.859323" fill="black" fill-opacity="0.5"/>
<ellipse cx="393.576" cy="66.1679" rx="0.991379" ry="0.859323" fill="black" fill-opacity="0.5"/>
<ellipse cx="524.437" cy="66.1679" rx="0.991379" ry="0.859323" fill="black" fill-opacity="0.5"/>
<ellipse cx="655.298" cy="67.0272" rx="0.991379" ry="0.859323" fill="black" fill-opacity="0.5"/>
<ellipse cx="786.159" cy="67.0272" rx="0.991379" ry="0.859323" fill="black" fill-opacity="0.5"/>
<ellipse cx="917.022" cy="67.0272" rx="0.991379" ry="0.859323" fill="black" fill-opacity="0.5"/>
<ellipse cx="1047.88" cy="67.0272" rx="0.991379" ry="0.859323" fill="black" fill-opacity="0.5"/>
<ellipse cx="1178.74" cy="67.0272" rx="0.991379" ry="0.859323" fill="black" fill-opacity="0.5"/>
<ellipse cx="1309.6" cy="67.0272" rx="0.991379" ry="0.859323" fill="black" fill-opacity="0.5"/>
<ellipse cx="1440.47" cy="66.1679" rx="0.991379" ry="0.859323" fill="black" fill-opacity="0.5"/>
<ellipse cx="1571.33" cy="66.1679" rx="0.991379" ry="0.859323" fill="black" fill-opacity="0.5"/>
<ellipse cx="1702.19" cy="66.1679" rx="0.991379" ry="0.859323" fill="black" fill-opacity="0.5"/>
<ellipse cx="22.8009" cy="74.7611" rx="0.991379" ry="0.859323" fill="black" fill-opacity="0.5"/>
<ellipse cx="66.422" cy="75.6204" rx="0.991379" ry="0.859323" fill="black" fill-opacity="0.5"/>
<ellipse cx="197.283" cy="75.6204" rx="0.991379" ry="0.859323" fill="black" fill-opacity="0.5"/>
<ellipse cx="328.145" cy="75.6204" rx="0.991379" ry="0.859323" fill="black" fill-opacity="0.5"/>
<ellipse cx="459.006" cy="75.6204" rx="0.991379" ry="0.859323" fill="black" fill-opacity="0.5"/>
<ellipse cx="589.867" cy="76.4797" rx="0.991379" ry="0.859323" fill="black" fill-opacity="0.5"/>
<ellipse cx="720.729" cy="76.4797" rx="0.991379" ry="0.859323" fill="black" fill-opacity="0.5"/>
<ellipse cx="851.589" cy="76.4797" rx="0.991379" ry="0.859323" fill="black" fill-opacity="0.5"/>
<ellipse cx="982.452" cy="76.4797" rx="0.991379" ry="0.859323" fill="black" fill-opacity="0.5"/>
<ellipse cx="1113.31" cy="76.4797" rx="0.991379" ry="0.859323" fill="black" fill-opacity="0.5"/>
<ellipse cx="1244.17" cy="76.4797" rx="0.991379" ry="0.859323" fill="black" fill-opacity="0.5"/>
<ellipse cx="1375.04" cy="75.6204" rx="0.991379" ry="0.859323" fill="black" fill-opacity="0.5"/>
<ellipse cx="1505.9" cy="75.6204" rx="0.991379" ry="0.859323" fill="black" fill-opacity="0.5"/>
<ellipse cx="1636.76" cy="75.6204" rx="0.991379" ry="0.859323" fill="black" fill-opacity="0.5"/>
<ellipse cx="110.043" cy="75.6204" rx="0.991379" ry="0.859323" fill="black" fill-opacity="0.5"/>
<ellipse cx="240.903" cy="75.6204" rx="0.991379" ry="0.859323" fill="black" fill-opacity="0.5"/>
<ellipse cx="371.765" cy="75.6204" rx="0.991379" ry="0.859323" fill="black" fill-opacity="0.5"/>
<ellipse cx="502.627" cy="75.6204" rx="0.991379" ry="0.859323" fill="black" fill-opacity="0.5"/>
<ellipse cx="633.487" cy="76.4797" rx="0.991379" ry="0.859323" fill="black" fill-opacity="0.5"/>
<ellipse cx="764.349" cy="76.4797" rx="0.991379" ry="0.859323" fill="black" fill-opacity="0.5"/>
<ellipse cx="895.211" cy="76.4797" rx="0.991379" ry="0.859323" fill="black" fill-opacity="0.5"/>
<ellipse cx="1026.07" cy="76.4797" rx="0.991379" ry="0.859323" fill="black" fill-opacity="0.5"/>
<ellipse cx="1156.93" cy="76.4797" rx="0.991379" ry="0.859323" fill="black" fill-opacity="0.5"/>
<ellipse cx="1287.79" cy="76.4797" rx="0.991379" ry="0.859323" fill="black" fill-opacity="0.5"/>
<ellipse cx="1418.66" cy="75.6204" rx="0.991379" ry="0.859323" fill="black" fill-opacity="0.5"/>
<ellipse cx="1549.52" cy="75.6204" rx="0.991379" ry="0.859323" fill="black" fill-opacity="0.5"/>
<ellipse cx="1680.38" cy="75.6204" rx="0.991379" ry="0.859323" fill="black" fill-opacity="0.5"/>
<ellipse cx="153.663" cy="75.6204" rx="0.991379" ry="0.859323" fill="black" fill-opacity="0.5"/>
<ellipse cx="284.525" cy="75.6204" rx="0.991379" ry="0.859323" fill="black" fill-opacity="0.5"/>
<ellipse cx="415.386" cy="75.6204" rx="0.991379" ry="0.859323" fill="black" fill-opacity="0.5"/>
<ellipse cx="546.246" cy="75.6204" rx="0.991379" ry="0.859323" fill="black" fill-opacity="0.5"/>
<ellipse cx="677.109" cy="76.4797" rx="0.991379" ry="0.859323" fill="black" fill-opacity="0.5"/>
<ellipse cx="807.97" cy="76.4797" rx="0.991379" ry="0.859323" fill="black" fill-opacity="0.5"/>
<ellipse cx="938.831" cy="76.4797" rx="0.991379" ry="0.859323" fill="black" fill-opacity="0.5"/>
<ellipse cx="1069.69" cy="76.4797" rx="0.991379" ry="0.859323" fill="black" fill-opacity="0.5"/>
<ellipse cx="1200.55" cy="76.4797" rx="0.991379" ry="0.859323" fill="black" fill-opacity="0.5"/>
<ellipse cx="1331.42" cy="76.4797" rx="0.991379" ry="0.859323" fill="black" fill-opacity="0.5"/>
<ellipse cx="1462.28" cy="75.6204" rx="0.991379" ry="0.859323" fill="black" fill-opacity="0.5"/>
<ellipse cx="1593.14" cy="75.6204" rx="0.991379" ry="0.859323" fill="black" fill-opacity="0.5"/>
<ellipse cx="1724" cy="75.6204" rx="0.991379" ry="0.859323" fill="black" fill-opacity="0.5"/>
<ellipse cx="0.991379" cy="86.7916" rx="0.991379" ry="0.859323" fill="black" fill-opacity="0.5"/>
<ellipse cx="44.6115" cy="87.6509" rx="0.991379" ry="0.859323" fill="black" fill-opacity="0.5"/>
<ellipse cx="175.474" cy="87.6509" rx="0.991379" ry="0.859323" fill="black" fill-opacity="0.5"/>
<ellipse cx="306.334" cy="87.6509" rx="0.991379" ry="0.859323" fill="black" fill-opacity="0.5"/>
<ellipse cx="437.195" cy="87.6509" rx="0.991379" ry="0.859323" fill="black" fill-opacity="0.5"/>
<ellipse cx="568.058" cy="88.5102" rx="0.991379" ry="0.859323" fill="black" fill-opacity="0.5"/>
<ellipse cx="698.919" cy="88.5102" rx="0.991379" ry="0.859323" fill="black" fill-opacity="0.5"/>
<ellipse cx="829.779" cy="88.5102" rx="0.991379" ry="0.859323" fill="black" fill-opacity="0.5"/>
<ellipse cx="960.642" cy="88.5102" rx="0.991379" ry="0.859323" fill="black" fill-opacity="0.5"/>
<ellipse cx="1091.5" cy="88.5102" rx="0.991379" ry="0.859323" fill="black" fill-opacity="0.5"/>
<ellipse cx="1222.36" cy="88.5102" rx="0.991379" ry="0.859323" fill="black" fill-opacity="0.5"/>
<ellipse cx="1353.23" cy="87.6509" rx="0.991379" ry="0.859323" fill="black" fill-opacity="0.5"/>
<ellipse cx="1484.09" cy="87.6509" rx="0.991379" ry="0.859323" fill="black" fill-opacity="0.5"/>
<ellipse cx="1614.95" cy="87.6509" rx="0.991379" ry="0.859323" fill="black" fill-opacity="0.5"/>
<ellipse cx="88.2326" cy="87.6509" rx="0.991379" ry="0.859323" fill="black" fill-opacity="0.5"/>
<ellipse cx="219.094" cy="87.6509" rx="0.991379" ry="0.859323" fill="black" fill-opacity="0.5"/>
<ellipse cx="349.954" cy="87.6509" rx="0.991379" ry="0.859323" fill="black" fill-opacity="0.5"/>
<ellipse cx="480.817" cy="87.6509" rx="0.991379" ry="0.859323" fill="black" fill-opacity="0.5"/>
<ellipse cx="611.677" cy="88.5102" rx="0.991379" ry="0.859323" fill="black" fill-opacity="0.5"/>
<ellipse cx="742.539" cy="88.5102" rx="0.991379" ry="0.859323" fill="black" fill-opacity="0.5"/>
<ellipse cx="873.4" cy="88.5102" rx="0.991379" ry="0.859323" fill="black" fill-opacity="0.5"/>
<ellipse cx="1004.26" cy="88.5102" rx="0.991379" ry="0.859323" fill="black" fill-opacity="0.5"/>
<ellipse cx="1135.12" cy="88.5102" rx="0.991379" ry="0.859323" fill="black" fill-opacity="0.5"/>
<ellipse cx="1265.98" cy="88.5102" rx="0.991379" ry="0.859323" fill="black" fill-opacity="0.5"/>
<ellipse cx="1396.85" cy="87.6509" rx="0.991379" ry="0.859323" fill="black" fill-opacity="0.5"/>
<ellipse cx="1527.71" cy="87.6509" rx="0.991379" ry="0.859323" fill="black" fill-opacity="0.5"/>
<ellipse cx="1658.57" cy="87.6509" rx="0.991379" ry="0.859323" fill="black" fill-opacity="0.5"/>
<ellipse cx="131.853" cy="87.6509" rx="0.991379" ry="0.859323" fill="black" fill-opacity="0.5"/>
<ellipse cx="262.714" cy="87.6509" rx="0.991379" ry="0.859323" fill="black" fill-opacity="0.5"/>
<ellipse cx="393.576" cy="87.6509" rx="0.991379" ry="0.859323" fill="black" fill-opacity="0.5"/>
<ellipse cx="524.437" cy="87.6509" rx="0.991379" ry="0.859323" fill="black" fill-opacity="0.5"/>
<ellipse cx="655.298" cy="88.5102" rx="0.991379" ry="0.859323" fill="black" fill-opacity="0.5"/>
<ellipse cx="786.159" cy="88.5102" rx="0.991379" ry="0.859323" fill="black" fill-opacity="0.5"/>
<ellipse cx="917.022" cy="88.5102" rx="0.991379" ry="0.859323" fill="black" fill-opacity="0.5"/>
<ellipse cx="1047.88" cy="88.5102" rx="0.991379" ry="0.859323" fill="black" fill-opacity="0.5"/>
<ellipse cx="1178.74" cy="88.5102" rx="0.991379" ry="0.859323" fill="black" fill-opacity="0.5"/>
<ellipse cx="1309.6" cy="88.5102" rx="0.991379" ry="0.859323" fill="black" fill-opacity="0.5"/>
<ellipse cx="1440.47" cy="87.6509" rx="0.991379" ry="0.859323" fill="black" fill-opacity="0.5"/>
<ellipse cx="1571.33" cy="87.6509" rx="0.991379" ry="0.859323" fill="black" fill-opacity="0.5"/>
<ellipse cx="1702.19" cy="87.6509" rx="0.991379" ry="0.859323" fill="black" fill-opacity="0.5"/>
<ellipse cx="22.8009" cy="96.2442" rx="0.991379" ry="0.859323" fill="black" fill-opacity="0.5"/>
<ellipse cx="66.422" cy="97.1035" rx="0.991379" ry="0.859323" fill="black" fill-opacity="0.5"/>
<ellipse cx="197.283" cy="97.1035" rx="0.991379" ry="0.859323" fill="black" fill-opacity="0.5"/>
<ellipse cx="328.145" cy="97.1035" rx="0.991379" ry="0.859323" fill="black" fill-opacity="0.5"/>
<ellipse cx="459.006" cy="97.1035" rx="0.991379" ry="0.859323" fill="black" fill-opacity="0.5"/>
<ellipse cx="589.867" cy="97.9628" rx="0.991379" ry="0.859323" fill="black" fill-opacity="0.5"/>
<ellipse cx="720.729" cy="97.9628" rx="0.991379" ry="0.859323" fill="black" fill-opacity="0.5"/>
<ellipse cx="851.589" cy="97.9628" rx="0.991379" ry="0.859323" fill="black" fill-opacity="0.5"/>
<ellipse cx="982.452" cy="97.9628" rx="0.991379" ry="0.859323" fill="black" fill-opacity="0.5"/>
<ellipse cx="1113.31" cy="97.9628" rx="0.991379" ry="0.859323" fill="black" fill-opacity="0.5"/>
<ellipse cx="1244.17" cy="97.9628" rx="0.991379" ry="0.859323" fill="black" fill-opacity="0.5"/>
<ellipse cx="1375.04" cy="97.1035" rx="0.991379" ry="0.859323" fill="black" fill-opacity="0.5"/>
<ellipse cx="1505.9" cy="97.1035" rx="0.991379" ry="0.859323" fill="black" fill-opacity="0.5"/>
<ellipse cx="1636.76" cy="97.1035" rx="0.991379" ry="0.859323" fill="black" fill-opacity="0.5"/>
<ellipse cx="110.043" cy="97.1035" rx="0.991379" ry="0.859323" fill="black" fill-opacity="0.5"/>
<ellipse cx="240.903" cy="97.1035" rx="0.991379" ry="0.859323" fill="black" fill-opacity="0.5"/>
<ellipse cx="371.765" cy="97.1035" rx="0.991379" ry="0.859323" fill="black" fill-opacity="0.5"/>
<ellipse cx="502.627" cy="97.1035" rx="0.991379" ry="0.859323" fill="black" fill-opacity="0.5"/>
<ellipse cx="633.487" cy="97.9628" rx="0.991379" ry="0.859323" fill="black" fill-opacity="0.5"/>
<ellipse cx="764.349" cy="97.9628" rx="0.991379" ry="0.859323" fill="black" fill-opacity="0.5"/>
<ellipse cx="895.211" cy="97.9628" rx="0.991379" ry="0.859323" fill="black" fill-opacity="0.5"/>
<ellipse cx="1026.07" cy="97.9628" rx="0.991379" ry="0.859323" fill="black" fill-opacity="0.5"/>
<ellipse cx="1156.93" cy="97.9628" rx="0.991379" ry="0.859323" fill="black" fill-opacity="0.5"/>
<ellipse cx="1287.79" cy="97.9628" rx="0.991379" ry="0.859323" fill="black" fill-opacity="0.5"/>
<ellipse cx="1418.66" cy="97.1035" rx="0.991379" ry="0.859323" fill="black" fill-opacity="0.5"/>
<ellipse cx="1549.52" cy="97.1035" rx="0.991379" ry="0.859323" fill="black" fill-opacity="0.5"/>
<ellipse cx="1680.38" cy="97.1035" rx="0.991379" ry="0.859323" fill="black" fill-opacity="0.5"/>
<ellipse cx="153.663" cy="97.1035" rx="0.991379" ry="0.859323" fill="black" fill-opacity="0.5"/>
<ellipse cx="284.525" cy="97.1035" rx="0.991379" ry="0.859323" fill="black" fill-opacity="0.5"/>
<ellipse cx="415.386" cy="97.1035" rx="0.991379" ry="0.859323" fill="black" fill-opacity="0.5"/>
<ellipse cx="546.246" cy="97.1035" rx="0.991379" ry="0.859323" fill="black" fill-opacity="0.5"/>
<ellipse cx="677.109" cy="97.9628" rx="0.991379" ry="0.859323" fill="black" fill-opacity="0.5"/>
<ellipse cx="807.97" cy="97.9628" rx="0.991379" ry="0.859323" fill="black" fill-opacity="0.5"/>
<ellipse cx="938.831" cy="97.9628" rx="0.991379" ry="0.859323" fill="black" fill-opacity="0.5"/>
<ellipse cx="1069.69" cy="97.9628" rx="0.991379" ry="0.859323" fill="black" fill-opacity="0.5"/>
<ellipse cx="1200.55" cy="97.9628" rx="0.991379" ry="0.859323" fill="black" fill-opacity="0.5"/>
<ellipse cx="1331.42" cy="97.9628" rx="0.991379" ry="0.859323" fill="black" fill-opacity="0.5"/>
<ellipse cx="1462.28" cy="97.1035" rx="0.991379" ry="0.859323" fill="black" fill-opacity="0.5"/>
<ellipse cx="1593.14" cy="97.1035" rx="0.991379" ry="0.859323" fill="black" fill-opacity="0.5"/>
<ellipse cx="1724" cy="97.1035" rx="0.991379" ry="0.859323" fill="black" fill-opacity="0.5"/>
<ellipse cx="44.6115" cy="109.134" rx="0.991379" ry="0.859323" fill="black" fill-opacity="0.5"/>
<ellipse cx="175.474" cy="109.134" rx="0.991379" ry="0.859323" fill="black" fill-opacity="0.5"/>
<ellipse cx="306.334" cy="109.134" rx="0.991379" ry="0.859323" fill="black" fill-opacity="0.5"/>
<ellipse cx="437.195" cy="109.134" rx="0.991379" ry="0.859323" fill="black" fill-opacity="0.5"/>
<ellipse cx="568.058" cy="109.993" rx="0.991379" ry="0.859323" fill="black" fill-opacity="0.5"/>
<ellipse cx="698.919" cy="109.993" rx="0.991379" ry="0.859323" fill="black" fill-opacity="0.5"/>
<ellipse cx="829.779" cy="109.993" rx="0.991379" ry="0.859323" fill="black" fill-opacity="0.5"/>
<ellipse cx="960.642" cy="109.993" rx="0.991379" ry="0.859323" fill="black" fill-opacity="0.5"/>
<ellipse cx="1091.5" cy="109.993" rx="0.991379" ry="0.859323" fill="black" fill-opacity="0.5"/>
<ellipse cx="1222.36" cy="109.993" rx="0.991379" ry="0.859323" fill="black" fill-opacity="0.5"/>
<ellipse cx="1353.23" cy="109.134" rx="0.991379" ry="0.859323" fill="black" fill-opacity="0.5"/>
<ellipse cx="1484.09" cy="109.134" rx="0.991379" ry="0.859323" fill="black" fill-opacity="0.5"/>
<ellipse cx="1614.95" cy="109.134" rx="0.991379" ry="0.859323" fill="black" fill-opacity="0.5"/>
<ellipse cx="88.2326" cy="109.134" rx="0.991379" ry="0.859323" fill="black" fill-opacity="0.5"/>
<ellipse cx="219.094" cy="109.134" rx="0.991379" ry="0.859323" fill="black" fill-opacity="0.5"/>
<ellipse cx="349.954" cy="109.134" rx="0.991379" ry="0.859323" fill="black" fill-opacity="0.5"/>
<ellipse cx="480.817" cy="109.134" rx="0.991379" ry="0.859323" fill="black" fill-opacity="0.5"/>
<ellipse cx="611.677" cy="109.993" rx="0.991379" ry="0.859323" fill="black" fill-opacity="0.5"/>
<ellipse cx="742.539" cy="109.993" rx="0.991379" ry="0.859323" fill="black" fill-opacity="0.5"/>
<ellipse cx="873.4" cy="109.993" rx="0.991379" ry="0.859323" fill="black" fill-opacity="0.5"/>
<ellipse cx="1004.26" cy="109.993" rx="0.991379" ry="0.859323" fill="black" fill-opacity="0.5"/>
<ellipse cx="1135.12" cy="109.993" rx="0.991379" ry="0.859323" fill="black" fill-opacity="0.5"/>
<ellipse cx="1265.98" cy="109.993" rx="0.991379" ry="0.859323" fill="black" fill-opacity="0.5"/>
<ellipse cx="1396.85" cy="109.134" rx="0.991379" ry="0.859323" fill="black" fill-opacity="0.5"/>
<ellipse cx="1527.71" cy="109.134" rx="0.991379" ry="0.859323" fill="black" fill-opacity="0.5"/>
<ellipse cx="1658.57" cy="109.134" rx="0.991379" ry="0.859323" fill="black" fill-opacity="0.5"/>
<ellipse cx="131.853" cy="109.134" rx="0.991379" ry="0.859323" fill="black" fill-opacity="0.5"/>
<ellipse cx="262.714" cy="109.134" rx="0.991379" ry="0.859323" fill="black" fill-opacity="0.5"/>
<ellipse cx="393.576" cy="109.134" rx="0.991379" ry="0.859323" fill="black" fill-opacity="0.5"/>
<ellipse cx="524.437" cy="109.134" rx="0.991379" ry="0.859323" fill="black" fill-opacity="0.5"/>
<ellipse cx="655.298" cy="109.993" rx="0.991379" ry="0.859323" fill="black" fill-opacity="0.5"/>
<ellipse cx="786.159" cy="109.993" rx="0.991379" ry="0.859323" fill="black" fill-opacity="0.5"/>
<ellipse cx="917.022" cy="109.993" rx="0.991379" ry="0.859323" fill="black" fill-opacity="0.5"/>
<ellipse cx="1047.88" cy="109.993" rx="0.991379" ry="0.859323" fill="black" fill-opacity="0.5"/>
<ellipse cx="1178.74" cy="109.993" rx="0.991379" ry="0.859323" fill="black" fill-opacity="0.5"/>
<ellipse cx="1309.6" cy="109.993" rx="0.991379" ry="0.859323" fill="black" fill-opacity="0.5"/>
<ellipse cx="1440.47" cy="109.134" rx="0.991379" ry="0.859323" fill="black" fill-opacity="0.5"/>
<ellipse cx="1571.33" cy="109.134" rx="0.991379" ry="0.859323" fill="black" fill-opacity="0.5"/>
<ellipse cx="1702.19" cy="109.134" rx="0.991379" ry="0.859323" fill="black" fill-opacity="0.5"/>
</svg>
