<svg width="213" height="245" viewBox="0 0 213 245" fill="none" xmlns="http://www.w3.org/2000/svg">
<path d="M5.32186 269.726C19.6476 216.956 43.6734 167.343 84.5781 130.357C99.2408 117.099 113.666 107.712 133.665 115.143C151.801 121.881 176.272 165.336 139.143 178.052C120.396 179.261 92.1973 174.945 86.1531 154.947C79.0236 131.358 82.9249 109.543 95.3323 88.5721C101.878 77.508 109.035 68.6511 118.351 59.9807C127.336 51.6174 135.047 44.256 147.4 38.8536C161.444 30.8068 178.924 33.4229 196.295 35.1594" stroke="#00C898" stroke-width="9" stroke-linecap="round"/>
<path d="M188.859 21.196C192.67 24.3927 195.881 27.2558 199.812 30.4152C201.595 31.8484 204.754 34.3613 206.777 35.4928C207.118 35.6837 207.284 35.7836 207.626 35.9183C207.825 35.9968 208.301 35.9389 208.228 36.1403C208.11 36.4699 207.632 36.5123 207.31 36.6511C204.886 37.697 202.375 38.5477 199.89 39.431C197.135 40.4102 190.338 43.6063 187.638 44.7254" stroke="#00C898" stroke-width="9" stroke-linecap="round"/>
</svg>
